# xmcd CD database file
#
# Track frame offsets:
#	4017
#	8925
#	23755
#	47164
#	69130
#	90537
#	114747
#	133602
#	156375
#	182692
#	209175
#	230700
#	243002
#
# Disc length: 3544 seconds
#
# Revision: 0
# Processed by: cddbd v1.5PL3 Copyright (c) Steve Scherf et al.
# Submitted via: CDex 1.51
#
DISCID=b50da30d
DTITLE=TimeSlip-Rendezvous - ELMIRAGE-HERE TODAY, HERE AGAIN
DYEAR=2000
DGENRE=JPop
TTITLE0=ELMIRAGE
TTITLE1=BETTER THAN YESTERDAY
TTITLE2=IT'S GONE NOW
TTITLE3=DILEMMA MONSTER
TTITLE4=OPEN THE GATE
TTITLE5=BRAVO HUMAN
TTITLE6=MOONLIGHT DRIVE
TTITLE7=REAL LIFE
TTITLE8=ANYWHERE
TTITLE9=BE MY WAY
TTITLE10=約束の地
TTITLE11=GOOD LUCK TO YOU
TTITLE12=ONE VISION
EXTD=YEAR: 2000.01.21
EXTT0=
EXTT1=
EXTT2=
EXTT3=
EXTT4=
EXTT5=
EXTT6=
EXTT7=
EXTT8=
EXTT9=
EXTT10=
EXTT11=
EXTT12=
PLAYORDER=
